<?xml version="1.0" encoding="UTF-8"?>
<svg width="68px" height="21px" viewBox="0 0 68 21" version="1.1" xmlns="http://www.w3.org/2000/svg" xmlns:xlink="http://www.w3.org/1999/xlink">
    <!-- Generator: Sketch 46.2 (44496) - http://www.bohemiancoding.com/sketch -->
    <title>roxit-logo</title>
    <desc>Created with Sketch.</desc>
    <defs></defs>
    <g id="Page-1" stroke="none" stroke-width="1" fill="none" fill-rule="evenodd">
        <g id="roxit-logo" fill-rule="nonzero">
            <path d="M8.8,5.8 C10,5.8 11.2,6.1 12.1,6.8 L11.3,9.6 C10.4,9 9.5,8.7 8.5,8.7 C6.6,8.7 4.9,9.9 4.9,12.3 L4.9,20.6 L1.6,20.6 L1.6,10.2 C1.6,8.9 1.6,8.3 0.1,8.4 L0.1,6.2 C2.2,5.7 4.5,6.1 4.7,8.4 C5.1,6.7 7,5.8 8.8,5.8 Z" id="Shape" fill="#4B4A4B"></path>
            <path d="M20.2,20.9 C16.4,20.9 12.7,18.4 12.7,13.4 C12.7,8.4 16.6,5.9 20.3,6 C24.2,6 27.7,8.5 27.7,13.4 C27.8,18.4 24,20.9 20.2,20.9 Z M20.3,18 C22.5,18 24.6,16.5 24.6,13.4 C24.6,10.4 22.6,8.8 20.4,8.8 C18.2,8.8 16,10.3 16,13.4 C15.9,16.5 18.1,18 20.3,18 Z" id="Shape" fill="#4B4A4B"></path>
            <polygon id="Shape" fill="#00E23E" points="35.4 15 33.7 17.7 31.6 20.5 28.3 20.5 28.3 20.1 33.6 12.9 29.1 6.6 29.1 6.3 32.2 6.3 33.8 8.6 35.4 11 35.5 11 37 8.6 38.7 6.3 42 6.3 42 6.7 37.3 13.2 42.4 20.2 42.4 20.6 39.3 20.6 37.2 17.7"></polygon>
            <path d="M46,0 C47,0 47.9,0.7 47.9,1.9 C47.9,3.2 47,3.8 46,3.8 C45,3.8 44,3.2 44,1.9 C44.1,0.6 45,0 46,0 Z M47.6,20.6 L44.4,20.6 L44.4,6.5 L47.6,6.5 L47.6,20.6 Z" id="Shape" fill="#4B4A4B"></path>
            <path d="M55.7,6.3 L60.6,6.3 L60.6,8.6 L55.7,8.6 L55.7,15 C55.7,18.6 58,18.9 60.9,17.8 L61.2,20.2 C56.3,21.7 52.5,20.6 52.5,15 L52.5,8.7 L49.6,8.5 L49.6,6.3 L52.5,6.3 L52.8,1.9 L55.6,1.9 L55.6,6.3 L55.7,6.3 Z" id="Shape" fill="#4B4A4B"></path>
            <path d="M63.2,19.1 C63.2,17.9 64.1,17.2 65.2,17.2 C66.3,17.2 67.2,17.9 67.2,19.1 C67.2,20.2 66.3,20.9 65.2,20.9 C64.1,21 63.2,20.2 63.2,19.1 Z" id="Shape" fill="#00E23E"></path>
        </g>
    </g>
</svg>